<svg xmlns="http://www.w3.org/2000/svg" width="38" height="39" viewBox="0 0 38 39" fill="none">
<path d="M21.2324 19.4999L28.0407 12.7074C28.3389 12.4092 28.5064 12.0049 28.5064 11.5832C28.5064 11.1616 28.3389 10.7572 28.0407 10.4591C27.7426 10.1609 27.3382 9.99341 26.9166 9.99341C26.4949 9.99341 26.0905 10.1609 25.7924 10.4591L18.9999 17.2674L12.2074 10.4591C11.9093 10.1609 11.5049 9.99341 11.0832 9.99341C10.6616 9.99341 10.2572 10.1609 9.95907 10.4591C9.66092 10.7572 9.49342 11.1616 9.49342 11.5832C9.49342 12.0049 9.66092 12.4092 9.95907 12.7074L16.7674 19.4999L9.95907 26.2924C9.81067 26.4396 9.69288 26.6147 9.61249 26.8076C9.53211 27.0006 9.49072 27.2075 9.49072 27.4166C9.49072 27.6256 9.53211 27.8325 9.61249 28.0255C9.69288 28.2184 9.81067 28.3935 9.95907 28.5407C10.1063 28.6891 10.2814 28.8069 10.4743 28.8873C10.6673 28.9677 10.8742 29.0091 11.0832 29.0091C11.2923 29.0091 11.4992 28.9677 11.6921 28.8873C11.8851 28.8069 12.0602 28.6891 12.2074 28.5407L18.9999 21.7324L25.7924 28.5407C25.9396 28.6891 26.1147 28.8069 26.3077 28.8873C26.5006 28.9677 26.7075 29.0091 26.9166 29.0091C27.1256 29.0091 27.3325 28.9677 27.5255 28.8873C27.7184 28.8069 27.8935 28.6891 28.0407 28.5407C28.1891 28.3935 28.3069 28.2184 28.3873 28.0255C28.4677 27.8325 28.5091 27.6256 28.5091 27.4166C28.5091 27.2075 28.4677 27.0006 28.3873 26.8076C28.3069 26.6147 28.1891 26.4396 28.0407 26.2924L21.2324 19.4999Z" fill="#E7332B"/>
</svg>